# xmcd
#
# Track frame offsets: 
#        150
#        16270
#        32862
#        50592
#        68525
#        86492
#        103105
#        121255
#        138252
#        155650
#        173857
#        194597
#
# Disc length: 2827 seconds
#
# Revision: 5
# Processed by: cddbd v1.5.2PL0 Copyright (c) Steve Scherf et al.
# Submitted via: ExactAudioCopy v0.99pb5
#
DISCID=9f0b090c
DTITLE=AC-DC - Stiff Upper Lip
DYEAR=2000
DGENRE=Hard Rock
TTITLE0=Stiff Upper Lip
TTITLE1=Meltdown
TTITLE2=House Of Jazz
TTITLE3=Hold Me Back
TTITLE4=Safe In New York City
TTITLE5=Can't Stand Still
TTITLE6=Can't Stop Rock 'N' Roll
TTITLE7=Satellite Blues
TTITLE8=Damned
TTITLE9=Come And Get It
TTITLE10=All Screwed Up
TTITLE11=Give It Up
EXTD=
EXTT0=
EXTT1=
EXTT2=
EXTT3=
EXTT4=
EXTT5=
EXTT6=
EXTT7=
EXTT8=
EXTT9=
EXTT10=
EXTT11=
PLAYORDER=
